<svg version="1.1" id="Capa_1" xmlns="http://www.w3.org/2000/svg" xmlns:xlink="http://www.w3.org/1999/xlink" x="0px" y="0px" width="40" height="40" viewBox="0 0 512 512" style="enable-background:new 0 0 512 512;" xml:space="preserve"><g><g><path d="M328.277,25.6h-21.837c-6.349,0-12.416-3.089-16.23-8.269C282.223,6.477,269.431,0,256,0 c-13.431,0-26.223,6.477-34.219,17.331c-3.806,5.18-9.873,8.269-16.222,8.269h-21.837c-16.606,0-30.123,13.508-30.123,30.123 V102.4c0,4.71,3.823,8.533,8.533,8.533h187.733c4.71,0,8.533-3.823,8.533-8.533V55.723C358.4,39.108,344.892,25.6,328.277,25.6z M341.333,93.867H170.667V55.723c0-7.194,5.862-13.056,13.056-13.056h21.837c11.759,0,22.963-5.692,29.969-15.215 c4.864-6.605,12.322-10.385,20.471-10.385c8.149,0,15.607,3.78,20.471,10.385c7.014,9.523,18.219,15.215,29.969,15.215h21.837 c7.194,0,13.056,5.862,13.056,13.056V93.867z"></path></g></g><g><g><path d="M409.6,42.667h-59.733c-4.71,0-8.533,3.823-8.533,8.533v42.667H170.667V51.2c0-4.71-3.823-8.533-8.533-8.533H102.4 c-23.526,0-42.667,19.14-42.667,42.667v384C59.733,492.86,78.874,512,102.4,512h307.2c23.526,0,42.667-19.14,42.667-42.667v-384 C452.267,61.807,433.126,42.667,409.6,42.667z M435.2,469.333c0,14.114-11.486,25.6-25.6,25.6H102.4 c-14.114,0-25.6-11.486-25.6-25.6v-384c0-14.114,11.486-25.6,25.6-25.6h51.2V102.4c0,4.71,3.823,8.533,8.533,8.533h187.733 c4.71,0,8.533-3.823,8.533-8.533V59.733h51.2c14.114,0,25.6,11.486,25.6,25.6V469.333z"></path></g></g><g><g><path d="M392.533,76.8h-42.667c-4.71,0-8.533,3.823-8.533,8.533v8.533H170.667v-8.533c0-4.71-3.823-8.533-8.533-8.533h-42.667 c-14.114,0-25.6,11.486-25.6,25.6v349.867c0,14.114,11.486,25.6,25.6,25.6h273.067c14.114,0,25.6-11.486,25.6-25.6V102.4 C418.133,88.286,406.647,76.8,392.533,76.8z M401.067,452.267c0,4.702-3.831,8.533-8.533,8.533H119.467 c-4.71,0-8.533-3.831-8.533-8.533V102.4c0-4.702,3.823-8.533,8.533-8.533H153.6v8.533c0,4.71,3.823,8.533,8.533,8.533h187.733 c4.71,0,8.533-3.823,8.533-8.533v-8.533h34.133c4.702,0,8.533,3.831,8.533,8.533V452.267z"></path></g></g><g><g><path d="M264.576,34.133h-17.152c-9.387,0-17.024,7.637-17.024,17.024v17.152c0,9.387,7.637,17.024,17.024,17.024h17.152 c9.387,0,17.024-7.637,17.024-17.024V51.157C281.6,41.771,273.963,34.133,264.576,34.133z M247.467,68.309L247.424,51.2 l17.109-0.043l0.009,17.109L247.467,68.309z"></path></g></g><g><g><path d="M187.733,128.026c-18.825,0-34.133,15.309-34.133,34.133s15.309,34.133,34.133,34.133s34.133-15.309,34.133-34.133 S206.558,128.026,187.733,128.026z M187.733,179.226c-9.412,0-17.067-7.654-17.067-17.067s7.654-17.067,17.067-17.067 s17.067,7.654,17.067,17.067S197.146,179.226,187.733,179.226z"></path></g></g><g><g><path d="M213.359,213.359h-51.251c-18.807,0-34.108,15.3-34.108,34.108v51.2c0,4.71,3.823,8.533,8.533,8.533h102.4 c4.71,0,8.533-3.823,8.533-8.533v-51.2C247.467,228.659,232.166,213.359,213.359,213.359z M230.4,290.133h-85.333v-42.667 c0-9.395,7.646-17.041,17.041-17.041h51.251c9.395,0,17.041,7.646,17.041,17.041V290.133z"></path></g></g><g><g><path d="M187.733,247.467c-4.71,0-8.533,3.823-8.533,8.533v42.667c0,4.71,3.823,8.533,8.533,8.533s8.533-3.823,8.533-8.533V256 C196.267,251.29,192.444,247.467,187.733,247.467z"></path></g></g><g><g><path d="M324.011,426.667H136.533c-4.71,0-8.533,3.823-8.533,8.533s3.823,8.533,8.533,8.533h187.477 c4.71,0,8.533-3.823,8.533-8.533S328.721,426.667,324.011,426.667z"></path></g></g><g><g><path d="M375.467,426.667H358.4c-4.71,0-8.533,3.823-8.533,8.533s3.823,8.533,8.533,8.533h17.067c4.71,0,8.533-3.823,8.533-8.533 S380.177,426.667,375.467,426.667z"></path></g></g><g><g><path d="M324.011,358.4H136.533c-4.71,0-8.533,3.823-8.533,8.533s3.823,8.533,8.533,8.533h187.477c4.71,0,8.533-3.823,8.533-8.533 S328.721,358.4,324.011,358.4z"></path></g></g><g><g><path d="M375.467,358.4H358.4c-4.71,0-8.533,3.823-8.533,8.533s3.823,8.533,8.533,8.533h17.067c4.71,0,8.533-3.823,8.533-8.533 S380.177,358.4,375.467,358.4z"></path></g></g><g><g><path d="M375.467,392.533H307.2c-4.71,0-8.533,3.823-8.533,8.533s3.823,8.533,8.533,8.533h68.267c4.71,0,8.533-3.823,8.533-8.533 S380.177,392.533,375.467,392.533z"></path></g></g><g><g><path d="M162.133,392.533h-25.6c-4.71,0-8.533,3.823-8.533,8.533s3.823,8.533,8.533,8.533h25.6c4.71,0,8.533-3.823,8.533-8.533 S166.844,392.533,162.133,392.533z"></path></g></g><g><g><path d="M273.067,392.533h-76.8c-4.71,0-8.533,3.823-8.533,8.533s3.823,8.533,8.533,8.533h76.8c4.71,0,8.533-3.823,8.533-8.533 S277.777,392.533,273.067,392.533z"></path></g></g><g><g><path d="M375.467,324.267H307.2c-4.71,0-8.533,3.823-8.533,8.533c0,4.71,3.823,8.533,8.533,8.533h68.267 c4.71,0,8.533-3.823,8.533-8.533C384,328.09,380.177,324.267,375.467,324.267z"></path></g></g><g><g><path d="M162.133,324.267h-25.6c-4.71,0-8.533,3.823-8.533,8.533c0,4.71,3.823,8.533,8.533,8.533h25.6 c4.71,0,8.533-3.823,8.533-8.533C170.667,328.09,166.844,324.267,162.133,324.267z"></path></g></g><g><g><path d="M273.067,324.267h-76.8c-4.71,0-8.533,3.823-8.533,8.533c0,4.71,3.823,8.533,8.533,8.533h76.8 c4.71,0,8.533-3.823,8.533-8.533C281.6,328.09,277.777,324.267,273.067,324.267z"></path></g></g><g><g><path d="M375.467,136.533h-102.4c-4.71,0-8.533,3.823-8.533,8.533v153.6c0,4.71,3.823,8.533,8.533,8.533h102.4 c4.71,0,8.533-3.823,8.533-8.533v-153.6C384,140.356,380.177,136.533,375.467,136.533z M366.933,290.133H281.6V153.6h85.333 V290.133z"></path></g></g><g><g><path d="M341.333,170.667H307.2c-4.71,0-8.533,3.823-8.533,8.533s3.823,8.533,8.533,8.533h34.133c4.71,0,8.533-3.823,8.533-8.533 S346.044,170.667,341.333,170.667z"></path></g></g><g><g><path d="M341.333,256H307.2c-4.71,0-8.533,3.823-8.533,8.533c0,4.71,3.823,8.533,8.533,8.533h34.133 c4.71,0,8.533-3.823,8.533-8.533C349.867,259.823,346.044,256,341.333,256z"></path></g></g><g><g><path d="M341.333,213.333H307.2c-4.71,0-8.533,3.823-8.533,8.533c0,4.71,3.823,8.533,8.533,8.533h34.133 c4.71,0,8.533-3.823,8.533-8.533C349.867,217.156,346.044,213.333,341.333,213.333z"></path></g></g></svg>