<svg xmlns="http://www.w3.org/2000/svg" width="24" height="24" viewBox="-14 0 512 512.001"><path d="m213.472656 166.957031c-4.828125 0-8.722656 6.539063-8.722656 10.898438 0 8.71875 14.171875 18.839843 33.011719 19.308593v4.359376c0 2.023437 2.335937 3.890624 5.292969 3.890624 2.648437 0 5.296874-1.867187 5.296874-3.890624v-4.828126c17.4375-2.804687 29.429688-13.859374 29.429688-33.011718 0-21.175782-15.570312-28.183594-29.429688-33.320313v-27.40625c10.429688.777344 14.015626 5.761719 18.375 5.761719 5.757813 0 8.25-7.160156 8.25-10.742188 0-9.03125-16.503906-11.992187-26.625-12.300781v-4.050781c0-2.023438-2.648437-3.890625-5.296874-3.890625-2.957032 0-5.292969 1.867187-5.292969 3.890625v4.359375c-15.570313 2.023437-30.207031 10.589844-30.207031 30.363281 0 19.929688 16.039062 26.003906 30.207031 31.296875v30.988281c-13.703125-1.558593-18.375-11.675781-24.289063-11.675781zm33.632813-15.574219c6.695312 2.960938 11.675781 6.695313 11.675781 14.328126 0 7.316406-4.824219 11.363281-11.675781 12.765624zm-20.554688-37.058593c0-5.917969 4.671875-9.652344 12.457031-10.898438v23.511719c-7.164062-2.804688-12.457031-5.761719-12.457031-12.613281zm0 0"></path><path d="m320.773438 227.632812h-158.390626c-4.144531 0-7.5 3.355469-7.5 7.5 0 4.144532 3.355469 7.5 7.5 7.5h158.390626c4.144531 0 7.5-3.355468 7.5-7.5 0-4.144531-3.355469-7.5-7.5-7.5zm0 0"></path><path d="m320.773438 265.445312h-158.390626c-4.144531 0-7.5 3.355469-7.5 7.5 0 4.144532 3.355469 7.5 7.5 7.5h158.390626c4.144531 0 7.5-3.355468 7.5-7.5 0-4.144531-3.355469-7.5-7.5-7.5zm0 0"></path><path d="m320.773438 303.257812h-158.390626c-4.144531 0-7.5 3.355469-7.5 7.5 0 4.140626 3.355469 7.5 7.5 7.5h158.390626c4.144531 0 7.5-3.359374 7.5-7.5 0-4.144531-3.355469-7.5-7.5-7.5zm0 0"></path><path d="m483.152344 489.605469v-262.804688c0-12.351562-10.046875-22.398437-22.394532-22.398437h-72.425781v-70.253906c0-4.144532-3.359375-7.5-7.5-7.5-4.144531 0-7.5 3.355468-7.5 7.5v154.453124l-102.570312 71.097657c-7.527344-9.523438-18.683594-14.042969-29.1875-14.042969-10.765625 0-21.820313 4.726562-29.183594 14.042969l-102.570313-71.097657c0-2.042968 0-191.816406 0-196.601562h54.347657c12.488281 0 22.652343-10.164062 22.652343-22.65625v-54.34375h178.855469c4.21875 0 7.652344 3.433594 7.652344 7.65625v76.488281c0 4.144531 3.355469 7.5 7.5 7.5s7.5-3.355469 7.5-7.5v-76.488281c.003906-12.492188-10.160156-22.65625-22.652344-22.65625h-186.351562c-1.894531 0-3.867188.761719-5.304688 2.195312l-77 77c-1.332031 1.332032-2.195312 3.25-2.195312 5.304688v119.902344h-72.425781c-12.351563 0-22.398438 10.046875-22.398438 22.398437v262.804688c0 12.347656 10.046875 22.394531 22.398438 22.394531h201.675781c4.144531 0 7.503906-3.355469 7.503906-7.5s-3.359375-7.5-7.503906-7.5h-201.675781c-4.078126 0-7.398438-3.316406-7.398438-7.394531v-248.480469c5.324219 3.6875 184.941406 128.199219 190.578125 132.105469-.839844 3.101562-1.292969 6.355469-1.292969 9.71875 0 20.5625 16.730469 37.292969 37.289063 37.292969 20.5625 0 37.292969-16.730469 37.292969-37.292969 0-3.363281-.453126-6.617188-1.292969-9.71875 5.664062-3.925781 185.324219-128.464844 190.578125-132.105469v248.480469c0 4.078125-3.320313 7.394531-7.398438 7.394531h-201.675781c-4.144531 0-7.5 3.355469-7.5 7.5s3.355469 7.5 7.5 7.5h201.679687c12.347657 0 22.394532-10.046875 22.394532-22.394531zm-311.332032-463.996094v43.734375c0 4.222656-3.433593 7.652344-7.652343 7.652344h-43.734375zm-76.996093 193.796875v58.796875l-79.003907-54.761719c1.363282-2.613281 3.960938-4.035156 6.578126-4.035156zm146.753906 185.835938c-12.292969 0-22.292969-10-22.292969-22.292969 0-12.320313 10.023438-22.261719 22.289063-22.261719 12.359375 0 22.292969 10.023438 22.292969 22.261719 0 12.292969-10 22.292969-22.289063 22.292969zm146.753906-185.835938h72.425781c2.742188 0 5.300782 1.546875 6.578126 4.03125l-79.003907 54.765625zm0 0"></path></svg>