<svg version="1.1" id="Capa_1" xmlns="http://www.w3.org/2000/svg" xmlns:xlink="http://www.w3.org/1999/xlink" x="0px" y="0px" width="24" height="24" viewBox="0 0 512 512" style="enable-background:new 0 0 512 512;" xml:space="preserve"><g><g><rect x="125.108" y="221.832" width="15.052" height="15.002"></rect></g></g><g><g><rect x="125.108" y="258.047" width="15.052" height="15.002"></rect></g></g><g><g><path d="M244.329,325.734v-24.513h-0.001h-3.04V168.716c0-31.108-25.31-56.418-56.418-56.418h-11.251 c13.849-11.685,22.667-29.152,22.667-48.648C196.287,28.553,167.733,0,132.637,0c-35.097,0-63.65,28.553-63.65,63.65 c0,19.496,8.819,36.963,22.668,48.648H80.404c-31.108,0-56.418,25.31-56.418,56.418v147.508h42.675V512h131.952v-79.622h80.23 V325.734H244.329z M83.989,63.65c0-26.824,21.823-48.648,48.648-48.648c26.824,0,48.648,21.823,48.648,48.648 s-21.823,48.648-48.648,48.648C105.812,112.297,83.989,90.474,83.989,63.65z M153.309,127.3l-20.672,42.134L111.965,127.3H153.309 z M125.136,496.997H81.664V178.424H66.661v122.797H38.989V168.716c0-22.836,18.58-41.416,41.416-41.416h14.849l29.881,60.905 v14.94h15.003v-14.94l29.881-60.905h14.85c22.836,0,41.416,18.58,41.416,41.416v132.506h-27.673V178.424H183.61v122.797h-3.04 v24.513h-33.468v17.61h-38.434v15.002h16.467V496.997z M229.326,316.224v9.51h-33.754v-9.51H229.326z M183.61,496.998h-43.472 V358.346h6.964v74.032h36.508V496.998z M263.841,417.375H162.104v-76.639h101.737V417.375z"></path></g></g><g><g><polygon points="242.753,380.947 242.753,395.885 212.589,395.885 212.589,410.888 257.755,410.888 257.755,380.947 "></polygon></g></g><g><g><path d="M372.294,37.821v50.359h-55.948v160.319h-64.302v15.002h64.302V423.82h55.948v50.359h115.719v-115.72H372.294v50.358 h-40.946V263.501h40.946v50.359h115.719V198.14H372.294v50.358h-40.946V103.182h40.946v50.358h115.719V37.821H372.294z M387.296,373.461h85.715v85.715h-85.715V373.461z M387.296,213.142h85.715v85.715h-85.715V213.142z M473.011,138.539h-85.715 V52.824h85.715V138.539z"></path></g></g><g><g><polygon points="459.689,224.433 412.466,271.655 400.62,259.81 390.013,270.418 412.466,292.871 470.296,235.041 "></polygon></g></g><g><g><polygon points="459.689,64.113 412.466,111.336 400.62,99.491 390.013,110.099 412.466,132.552 470.296,74.722 "></polygon></g></g><g><g><polygon points="459.689,384.752 412.466,431.975 400.62,420.129 390.013,430.736 412.466,453.19 470.296,395.359 "></polygon></g></g></svg>